<svg width="121" height="110" viewBox="0 0 121 110" fill="none" xmlns="http://www.w3.org/2000/svg">
<path d="M0 7.55253V13.779V93.6458C0 97.817 3.38138 101.198 7.55253 101.198H113.447C117.619 101.198 121 97.817 121 93.6458V17.5902C121 13.4191 117.619 10.0377 113.447 10.0377H49.9715C47.8861 10.0377 45.8935 9.17547 44.466 7.65533L39.5142 2.38238C38.0866 0.862237 36.0941 0 34.0087 0H7.55253C3.38138 0 0 3.38139 0 7.55253Z" fill="#A0DFFF"/>
<rect y="24.1357" width="121" height="85.2293" rx="8.05603" fill="#69CAF7"/>
<path d="M15.08 77V69.128H19.616V69.968H16.076V72.632H19.076V73.472H16.076V77H15.08ZM23.0176 77.144C22.5456 77.144 22.1016 77.024 21.6856 76.784C21.2776 76.544 20.9456 76.196 20.6896 75.74C20.4416 75.284 20.3176 74.736 20.3176 74.096C20.3176 73.44 20.4416 72.884 20.6896 72.428C20.9456 71.972 21.2776 71.624 21.6856 71.384C22.1016 71.144 22.5456 71.024 23.0176 71.024C23.4976 71.024 23.9416 71.144 24.3496 71.384C24.7576 71.624 25.0856 71.972 25.3336 72.428C25.5896 72.884 25.7176 73.44 25.7176 74.096C25.7176 74.736 25.5896 75.284 25.3336 75.74C25.0856 76.196 24.7576 76.544 24.3496 76.784C23.9416 77.024 23.4976 77.144 23.0176 77.144ZM23.0176 76.328C23.5216 76.328 23.9256 76.124 24.2296 75.716C24.5416 75.3 24.6976 74.76 24.6976 74.096C24.6976 73.424 24.5416 72.88 24.2296 72.464C23.9256 72.048 23.5216 71.84 23.0176 71.84C22.5216 71.84 22.1176 72.048 21.8056 72.464C21.4936 72.88 21.3376 73.424 21.3376 74.096C21.3376 74.76 21.4936 75.3 21.8056 75.716C22.1176 76.124 22.5216 76.328 23.0176 76.328ZM28.2975 77.144C27.9295 77.144 27.6615 77.032 27.4935 76.808C27.3335 76.576 27.2535 76.248 27.2535 75.824V68.456H28.2375V75.896C28.2375 76.048 28.2655 76.16 28.3215 76.232C28.3775 76.296 28.4415 76.328 28.5135 76.328C28.5455 76.328 28.5735 76.328 28.5975 76.328C28.6295 76.32 28.6735 76.312 28.7295 76.304L28.8615 77.048C28.7975 77.08 28.7215 77.104 28.6335 77.12C28.5455 77.136 28.4335 77.144 28.2975 77.144ZM32.3041 77.144C31.5761 77.144 30.9921 76.88 30.5521 76.352C30.1121 75.816 29.8921 75.064 29.8921 74.096C29.8921 73.464 30.0081 72.92 30.2401 72.464C30.4801 72 30.7921 71.644 31.1761 71.396C31.5681 71.148 31.9841 71.024 32.4241 71.024C32.7601 71.024 33.0521 71.084 33.3001 71.204C33.5481 71.324 33.8001 71.488 34.0561 71.696L34.0081 70.7V68.456H35.0041V77H34.1881L34.1041 76.316H34.0681C33.8441 76.54 33.5801 76.736 33.2761 76.904C32.9721 77.064 32.6481 77.144 32.3041 77.144ZM32.5201 76.316C33.0321 76.316 33.5281 76.048 34.0081 75.512V72.464C33.7601 72.24 33.5201 72.084 33.2881 71.996C33.0641 71.9 32.8321 71.852 32.5921 71.852C32.2801 71.852 31.9961 71.948 31.7401 72.14C31.4921 72.324 31.2921 72.584 31.1401 72.92C30.9881 73.248 30.9121 73.636 30.9121 74.084C30.9121 74.78 31.0521 75.328 31.3321 75.728C31.6121 76.12 32.0081 76.316 32.5201 76.316ZM39.3324 77.144C38.8124 77.144 38.3404 77.024 37.9164 76.784C37.4924 76.536 37.1564 76.184 36.9084 75.728C36.6604 75.272 36.5364 74.728 36.5364 74.096C36.5364 73.456 36.6604 72.908 36.9084 72.452C37.1644 71.996 37.4924 71.644 37.8924 71.396C38.2924 71.148 38.7124 71.024 39.1524 71.024C39.8964 71.024 40.4684 71.272 40.8684 71.768C41.2764 72.264 41.4804 72.928 41.4804 73.76C41.4804 73.864 41.4764 73.968 41.4684 74.072C41.4684 74.168 41.4604 74.252 41.4444 74.324H37.5084C37.5484 74.94 37.7404 75.432 38.0844 75.8C38.4364 76.168 38.8924 76.352 39.4524 76.352C39.7324 76.352 39.9884 76.312 40.2204 76.232C40.4604 76.144 40.6884 76.032 40.9044 75.896L41.2524 76.544C41.0044 76.704 40.7204 76.844 40.4004 76.964C40.0884 77.084 39.7324 77.144 39.3324 77.144ZM37.4964 73.616H40.6164C40.6164 73.024 40.4884 72.576 40.2324 72.272C39.9844 71.96 39.6324 71.804 39.1764 71.804C38.7684 71.804 38.4004 71.964 38.0724 72.284C37.7524 72.596 37.5604 73.04 37.4964 73.616ZM42.9215 77V71.168H43.7375L43.8215 72.224H43.8575C44.0575 71.856 44.3015 71.564 44.5895 71.348C44.8775 71.132 45.1855 71.024 45.5135 71.024C45.7455 71.024 45.9535 71.064 46.1375 71.144L45.9455 72.008C45.8495 71.976 45.7615 71.952 45.6815 71.936C45.6015 71.92 45.5015 71.912 45.3815 71.912C45.1335 71.912 44.8735 72.012 44.6015 72.212C44.3375 72.412 44.1055 72.76 43.9055 73.256V77H42.9215ZM48.5588 77.144C48.1428 77.144 47.7468 77.068 47.3708 76.916C46.9948 76.756 46.6668 76.564 46.3868 76.34L46.8788 75.68C47.1348 75.88 47.3988 76.048 47.6708 76.184C47.9428 76.312 48.2508 76.376 48.5948 76.376C48.9788 76.376 49.2668 76.288 49.4588 76.112C49.6508 75.928 49.7468 75.712 49.7468 75.464C49.7468 75.264 49.6788 75.096 49.5428 74.96C49.4148 74.824 49.2468 74.712 49.0388 74.624C48.8388 74.528 48.6308 74.44 48.4148 74.36C48.1428 74.256 47.8748 74.14 47.6108 74.012C47.3468 73.876 47.1308 73.704 46.9628 73.496C46.7948 73.28 46.7108 73.008 46.7108 72.68C46.7108 72.208 46.8868 71.816 47.2388 71.504C47.5988 71.184 48.0948 71.024 48.7268 71.024C49.0868 71.024 49.4228 71.088 49.7348 71.216C50.0468 71.344 50.3148 71.5 50.5388 71.684L50.0588 72.308C49.8588 72.156 49.6508 72.032 49.4348 71.936C49.2188 71.84 48.9828 71.792 48.7268 71.792C48.3588 71.792 48.0868 71.876 47.9108 72.044C47.7428 72.212 47.6588 72.408 47.6588 72.632C47.6588 72.816 47.7188 72.968 47.8388 73.088C47.9588 73.2 48.1148 73.3 48.3068 73.388C48.4988 73.468 48.7028 73.552 48.9188 73.64C49.1988 73.744 49.4748 73.864 49.7468 74C50.0188 74.128 50.2428 74.304 50.4188 74.528C50.6028 74.744 50.6948 75.036 50.6948 75.404C50.6948 75.716 50.6108 76.004 50.4428 76.268C50.2828 76.532 50.0428 76.744 49.7228 76.904C49.4108 77.064 49.0228 77.144 48.5588 77.144ZM15.08 89V81.128H17.42C17.956 81.128 18.424 81.192 18.824 81.32C19.232 81.448 19.548 81.652 19.772 81.932C20.004 82.212 20.12 82.584 20.12 83.048C20.12 83.44 20.02 83.796 19.82 84.116C19.628 84.428 19.344 84.644 18.968 84.764V84.812C19.44 84.9 19.824 85.1 20.12 85.412C20.424 85.724 20.576 86.152 20.576 86.696C20.576 87.208 20.448 87.636 20.192 87.98C19.944 88.324 19.596 88.58 19.148 88.748C18.7 88.916 18.18 89 17.588 89H15.08ZM16.076 84.476H17.24C17.912 84.476 18.396 84.36 18.692 84.128C18.988 83.896 19.136 83.58 19.136 83.18C19.136 82.724 18.98 82.4 18.668 82.208C18.364 82.016 17.904 81.92 17.288 81.92H16.076V84.476ZM16.076 88.208H17.444C18.124 88.208 18.652 88.084 19.028 87.836C19.404 87.58 19.592 87.188 19.592 86.66C19.592 86.172 19.404 85.816 19.028 85.592C18.66 85.36 18.132 85.244 17.444 85.244H16.076V88.208ZM21.9706 91.508C21.8426 91.508 21.7186 91.496 21.5986 91.472C21.4866 91.448 21.3826 91.42 21.2866 91.388L21.4786 90.608C21.5426 90.624 21.6146 90.64 21.6946 90.656C21.7746 90.68 21.8506 90.692 21.9226 90.692C22.2506 90.692 22.5226 90.572 22.7386 90.332C22.9546 90.1 23.1226 89.804 23.2426 89.444L23.3746 89.012L21.0346 83.168H22.0546L23.2426 86.396C23.3306 86.644 23.4226 86.912 23.5186 87.2C23.6226 87.488 23.7186 87.768 23.8066 88.04H23.8546C23.9426 87.776 24.0266 87.5 24.1066 87.212C24.1866 86.924 24.2666 86.652 24.3466 86.396L25.3906 83.168H26.3506L24.1546 89.48C24.0186 89.864 23.8546 90.208 23.6626 90.512C23.4786 90.816 23.2466 91.056 22.9666 91.232C22.6946 91.416 22.3626 91.508 21.9706 91.508ZM32.1585 89.144C31.6065 89.144 31.0945 89.04 30.6225 88.832C30.1505 88.616 29.7425 88.332 29.3985 87.98L29.9985 87.284C30.2785 87.58 30.6065 87.82 30.9825 88.004C31.3665 88.18 31.7625 88.268 32.1705 88.268C32.6905 88.268 33.0945 88.152 33.3825 87.92C33.6705 87.68 33.8145 87.368 33.8145 86.984C33.8145 86.712 33.7545 86.496 33.6345 86.336C33.5225 86.176 33.3665 86.04 33.1665 85.928C32.9745 85.816 32.7545 85.704 32.5065 85.592L31.3785 85.1C31.1305 84.996 30.8825 84.86 30.6345 84.692C30.3945 84.524 30.1905 84.308 30.0225 84.044C29.8625 83.78 29.7825 83.456 29.7825 83.072C29.7825 82.672 29.8865 82.316 30.0945 82.004C30.3105 81.684 30.6065 81.436 30.9825 81.26C31.3585 81.076 31.7825 80.984 32.2545 80.984C32.7265 80.984 33.1625 81.076 33.5625 81.26C33.9625 81.436 34.3025 81.668 34.5825 81.956L34.0425 82.604C33.8025 82.372 33.5345 82.192 33.2385 82.064C32.9505 81.928 32.6225 81.86 32.2545 81.86C31.8145 81.86 31.4585 81.964 31.1865 82.172C30.9225 82.38 30.7905 82.66 30.7905 83.012C30.7905 83.26 30.8545 83.468 30.9825 83.636C31.1185 83.796 31.2865 83.928 31.4865 84.032C31.6865 84.136 31.8905 84.232 32.0985 84.32L33.2145 84.8C33.5185 84.928 33.7905 85.084 34.0305 85.268C34.2785 85.444 34.4745 85.664 34.6185 85.928C34.7625 86.184 34.8345 86.508 34.8345 86.9C34.8345 87.316 34.7265 87.696 34.5105 88.04C34.2945 88.376 33.9865 88.644 33.5865 88.844C33.1865 89.044 32.7105 89.144 32.1585 89.144ZM35.6887 91.604C35.5127 91.604 35.3527 91.588 35.2087 91.556C35.0567 91.524 34.9287 91.488 34.8247 91.448L35.0287 90.704C35.1007 90.728 35.1847 90.748 35.2807 90.764C35.3767 90.788 35.4767 90.8 35.5807 90.8C35.8687 90.8 36.0607 90.696 36.1567 90.488C36.2527 90.288 36.3007 90.012 36.3007 89.66V83.168H37.2847V89.66C37.2847 90.252 37.1647 90.724 36.9247 91.076C36.6847 91.428 36.2727 91.604 35.6887 91.604ZM36.7807 81.968C36.5887 81.968 36.4287 81.912 36.3007 81.8C36.1807 81.68 36.1207 81.52 36.1207 81.32C36.1207 81.128 36.1807 80.972 36.3007 80.852C36.4287 80.732 36.5887 80.672 36.7807 80.672C36.9727 80.672 37.1287 80.732 37.2487 80.852C37.3767 80.972 37.4407 81.128 37.4407 81.32C37.4407 81.52 37.3767 81.68 37.2487 81.8C37.1287 81.912 36.9727 81.968 36.7807 81.968ZM41.5215 89.144C41.0495 89.144 40.6055 89.024 40.1895 88.784C39.7815 88.544 39.4495 88.196 39.1935 87.74C38.9455 87.284 38.8215 86.736 38.8215 86.096C38.8215 85.44 38.9455 84.884 39.1935 84.428C39.4495 83.972 39.7815 83.624 40.1895 83.384C40.6055 83.144 41.0495 83.024 41.5215 83.024C42.0015 83.024 42.4455 83.144 42.8535 83.384C43.2615 83.624 43.5895 83.972 43.8375 84.428C44.0935 84.884 44.2215 85.44 44.2215 86.096C44.2215 86.736 44.0935 87.284 43.8375 87.74C43.5895 88.196 43.2615 88.544 42.8535 88.784C42.4455 89.024 42.0015 89.144 41.5215 89.144ZM41.5215 88.328C42.0255 88.328 42.4295 88.124 42.7335 87.716C43.0455 87.3 43.2015 86.76 43.2015 86.096C43.2015 85.424 43.0455 84.88 42.7335 84.464C42.4295 84.048 42.0255 83.84 41.5215 83.84C41.0255 83.84 40.6215 84.048 40.3095 84.464C39.9975 84.88 39.8415 85.424 39.8415 86.096C39.8415 86.76 39.9975 87.3 40.3095 87.716C40.6215 88.124 41.0255 88.328 41.5215 88.328ZM45.7574 89V83.168H46.5734L46.6574 84.008H46.6934C46.9734 83.728 47.2694 83.496 47.5814 83.312C47.8934 83.12 48.2494 83.024 48.6494 83.024C49.2654 83.024 49.7134 83.22 49.9934 83.612C50.2814 83.996 50.4254 84.56 50.4254 85.304V89H49.4414V85.436C49.4414 84.892 49.3534 84.496 49.1774 84.248C49.0014 84 48.7214 83.876 48.3374 83.876C48.0414 83.876 47.7734 83.952 47.5334 84.104C47.3014 84.256 47.0374 84.48 46.7414 84.776V89H45.7574ZM53.3639 89.144C52.9959 89.144 52.7279 89.032 52.5599 88.808C52.3999 88.576 52.3199 88.248 52.3199 87.824V80.456H53.3039V87.896C53.3039 88.048 53.3319 88.16 53.3879 88.232C53.4439 88.296 53.5079 88.328 53.5799 88.328C53.6119 88.328 53.6399 88.328 53.6639 88.328C53.6959 88.32 53.7399 88.312 53.7959 88.304L53.9279 89.048C53.8639 89.08 53.7879 89.104 53.6999 89.12C53.6119 89.136 53.4999 89.144 53.3639 89.144ZM57.7425 89.144C57.2225 89.144 56.7505 89.024 56.3265 88.784C55.9025 88.536 55.5665 88.184 55.3185 87.728C55.0705 87.272 54.9465 86.728 54.9465 86.096C54.9465 85.456 55.0705 84.908 55.3185 84.452C55.5745 83.996 55.9025 83.644 56.3025 83.396C56.7025 83.148 57.1225 83.024 57.5625 83.024C58.3065 83.024 58.8785 83.272 59.2785 83.768C59.6865 84.264 59.8905 84.928 59.8905 85.76C59.8905 85.864 59.8865 85.968 59.8785 86.072C59.8785 86.168 59.8705 86.252 59.8545 86.324H55.9185C55.9585 86.94 56.1505 87.432 56.4945 87.8C56.8465 88.168 57.3025 88.352 57.8625 88.352C58.1425 88.352 58.3985 88.312 58.6305 88.232C58.8705 88.144 59.0985 88.032 59.3145 87.896L59.6625 88.544C59.4145 88.704 59.1305 88.844 58.8105 88.964C58.4985 89.084 58.1425 89.144 57.7425 89.144ZM55.9065 85.616H59.0265C59.0265 85.024 58.8985 84.576 58.6425 84.272C58.3945 83.96 58.0425 83.804 57.5865 83.804C57.1785 83.804 56.8105 83.964 56.4825 84.284C56.1625 84.596 55.9705 85.04 55.9065 85.616ZM63.6957 89.144C63.1757 89.144 62.7037 89.024 62.2797 88.784C61.8557 88.536 61.5197 88.184 61.2717 87.728C61.0237 87.272 60.8997 86.728 60.8997 86.096C60.8997 85.456 61.0237 84.908 61.2717 84.452C61.5277 83.996 61.8557 83.644 62.2557 83.396C62.6557 83.148 63.0757 83.024 63.5157 83.024C64.2597 83.024 64.8317 83.272 65.2317 83.768C65.6397 84.264 65.8437 84.928 65.8437 85.76C65.8437 85.864 65.8397 85.968 65.8317 86.072C65.8317 86.168 65.8237 86.252 65.8077 86.324H61.8717C61.9117 86.94 62.1037 87.432 62.4477 87.8C62.7997 88.168 63.2557 88.352 63.8157 88.352C64.0957 88.352 64.3517 88.312 64.5837 88.232C64.8237 88.144 65.0517 88.032 65.2677 87.896L65.6157 88.544C65.3677 88.704 65.0837 88.844 64.7637 88.964C64.4517 89.084 64.0957 89.144 63.6957 89.144ZM61.8597 85.616H64.9797C64.9797 85.024 64.8517 84.576 64.5957 84.272C64.3477 83.96 63.9957 83.804 63.5397 83.804C63.1317 83.804 62.7637 83.964 62.4357 84.284C62.1157 84.596 61.9237 85.04 61.8597 85.616Z" fill="white"/>
</svg>
